<?xml version="1.0" encoding="utf-8" ?>
<svg xmlns="http://www.w3.org/2000/svg" xmlns:xlink="http://www.w3.org/1999/xlink" width="1024" height="1024">
	<path fill="#CDB4DB" transform="scale(1.6 1.6)" d="M465.468 300.995C476.727 300.284 474.525 327.557 467.969 329.696C460.103 330.012 460.142 322.578 460.109 316.544C460.079 310.976 458.532 302.768 465.468 300.995Z"/>
	<path fill="#CDB4DB" transform="scale(1.6 1.6)" d="M464.684 251.329C465.872 251.287 467.525 251.022 468.654 251.352L469.53 251.7C470.573 252.236 471.492 253.48 471.917 254.556L472.251 255.362C473.117 257.59 472.58 261.908 472.585 264.414C472.599 271.043 475.475 291.744 467.077 294.314L465.156 294.04C460.121 292.605 460.057 287.231 460.034 283.016L459.965 273.494C459.831 268.041 458.086 260.92 460.093 255.662L460.236 255.312C461.096 253.147 462.683 252.257 464.684 251.329Z"/>
	<path fill="#7147CC" transform="scale(1.6 1.6)" d="M443.915 427.277C450.285 426.653 458.702 426.912 464.612 429.532C471.041 432.381 472.466 440.227 466.406 442.653C463.221 443.928 457.051 441.437 453.77 440.827C442.114 438.659 428.677 448.502 416.325 452.318C410.494 453.912 403.694 455.449 397.658 454.531L397.188 454.453C391.908 453.63 386.713 449.033 390.781 443.732C393.59 440.071 401.035 441.392 405.252 440.998C420.897 439.535 430.331 429.538 443.915 427.277Z"/>
	<path fill="#7147CC" transform="scale(1.6 1.6)" d="M477.219 447.228C482.87 447.024 486.187 453.915 488.764 458.1L496.986 472.153C500.781 478.714 505.035 485.35 508.068 492.296C510.568 498.022 512.088 512.409 503.971 513.164C499.185 513.609 493.985 513.215 489.144 513.209L359.66 513.316C354.219 513.913 349.305 511.436 351.125 504.874L351.228 504.531C353.046 498.314 360.606 500.027 365.527 500.024L482.652 500.016C487.269 500.014 492.006 500.264 496.59 499.711C495.102 494.419 492.172 489.749 489.381 485.057L479.16 468.127C475.057 461.206 467.629 452.621 477.219 447.228Z"/>
	<defs>
		<linearGradient id="gradient_0" gradientUnits="userSpaceOnUse" x1="430.50665" y1="550.75897" x2="421.43222" y2="340.20746">
			<stop offset="0" stop-color="#5228BE"/>
			<stop offset="1" stop-color="#DAC3EE"/>
		</linearGradient>
	</defs>
	<path fill="url(#gradient_0)" transform="scale(1.6 1.6)" d="M497.947 427.216L482.142 403.151C472.255 387.929 454.87 363.737 458.646 344.298L458.886 343.034C459.798 338.696 463.574 337.378 467.656 338.673C470.701 339.64 470.746 344.994 471.027 347.607C472.905 365.03 480.421 377.02 490.042 391.474L500.51 407.809C503.223 412.007 506.172 416.172 508.6 420.535L548.142 481.967C551.22 486.973 554.25 491.922 556.097 497.535C564.198 522.144 546.373 545.174 521.228 547.125C517.06 547.449 512.717 547.232 508.53 547.234L490.129 547.216L355.148 547.22C343.283 547.214 330.364 548.323 319.507 542.577C302.751 533.708 294.336 510.925 303.544 493.802C303.781 490.367 335.843 442.123 339.801 436.315L368.462 390.568C370.46 387.268 374.189 379.561 378.416 378.758C386.624 377.2 387.376 384.831 384.204 390.846C381.27 396.412 377.161 401.403 373.777 406.716L356.483 433.241C354.169 436.7 352.03 440.445 349.487 443.733L327.019 479.687C321.586 488.25 314.656 496.71 312.911 506.937C311.872 524.866 323.43 533.199 340.083 533.966L510.331 534.097C517.054 534.102 519.788 533.885 526.132 533.004C526.521 532.579 528.387 532.126 528.993 531.895C537.054 528.826 542.521 522.385 544.445 513.906C546.767 503.671 541.041 495.2 535.847 486.957L497.947 427.216Z"/>
	<defs>
		<linearGradient id="gradient_1" gradientUnits="userSpaceOnUse" x1="407.20871" y1="370.0571" x2="433.72864" y2="91.11264">
			<stop offset="0" stop-color="#BCACE2"/>
			<stop offset="1" stop-color="#FFD2E0"/>
		</linearGradient>
	</defs>
	<path fill="url(#gradient_1)" transform="scale(1.6 1.6)" d="M424.944 89.8438C429.089 89.6293 433.495 96.3564 435.73 99.2683C452.617 121.27 458.065 146.956 434.395 166.222C426.104 172.97 423.825 173.217 425.315 185.029L476.735 185.297C493.546 185.303 511.513 182.057 512.931 205.156C513.339 211.808 513.608 218.747 510.413 224.811L510.156 225.292C505.087 235.027 495.718 234.298 486.416 234.326L389.839 234.48L389.707 335.859L389.658 352.689C389.628 355.898 389.995 359.874 388.88 362.895C387.233 367.361 383.477 370.846 378.698 367.501C375.276 365.105 376.698 358.631 376.738 355.156L376.753 242.362C376.747 239.86 377.061 236.827 376.594 234.402L355.861 234.392C347.487 234.379 335.47 234.396 332.535 223.794L332.44 223.438C331.156 218.91 331.744 213.845 331.987 209.219C333.321 183.884 343.875 185.357 367.226 185.338L396.359 185.32C401.866 185.315 407.495 185.55 412.984 185.094L413.535 182.762C415.195 171.116 376.808 151.314 395.757 118.504C399.282 112.399 417.712 91.7783 424.944 89.8438ZM350.879 198.81C341.992 200.977 344.903 213.198 345.298 220.577C350.384 221.091 355.584 220.723 360.692 220.694L493.516 220.837L498.015 221.164C498.925 216.5 500.244 204.443 498.386 199.767C491.355 198.107 483.312 198.742 476.104 198.74L350.879 198.81ZM424.067 109.844C419.44 113.932 413.856 117.658 410.352 122.812L410.085 123.194C403.907 132.168 405.691 144.695 413.813 151.921C412.555 143.549 409.695 131.392 417.956 125.697L418.246 125.552C422.164 123.654 423.915 126.423 425.009 130L425.19 130.551C425.856 132.65 425.732 134.952 425.739 137.132L425.807 146.05C425.946 152.77 428.344 152.839 431.883 147.5C441.474 133.032 427.434 109.246 424.067 109.844Z"/>
	<defs>
		<linearGradient id="gradient_2" gradientUnits="userSpaceOnUse" x1="198.8403" y1="547.56256" x2="228.73132" y2="70.72924">
			<stop offset="0" stop-color="#5E43D3"/>
			<stop offset="1" stop-color="#FFEDE3"/>
		</linearGradient>
	</defs>
	<path fill="url(#gradient_2)" transform="scale(1.6 1.6)" d="M157.062 213.863C151.493 206.208 148.671 194.308 150.822 184.932L150.932 184.434C153.448 173.357 165.79 169.905 175.398 174.691C183.898 178.925 185.252 189.128 189.122 196.875C191.988 202.613 195.855 208.193 200.567 212.567L201.19 175.682C201.186 173.67 201.727 167.904 200.834 166.45C188.37 160.203 175.201 153.532 166.531 142.188L166.273 141.855C156.04 128.566 156.632 81.2716 184.5 100.186C196.233 108.149 202.061 117.292 207.537 129.818L212.357 120.739C228.142 93.5984 260.309 73.9589 292.031 74.6967C296.78 76.9536 296.439 80.7169 296.357 85.2157C295.813 115.152 272.373 144.212 245.643 156.679C241.491 158.615 214.764 166.911 214.324 167.389L213.472 195.634C215.111 194.305 216.311 192.736 218.125 191.562L218.5 191.315C225.164 187.029 236.899 186.131 244.468 187.853C256.187 190.519 256.074 204.402 250.469 212.829L250.167 213.293C244.934 221.08 233.627 227.058 225.312 230.657C224.082 231.19 215.411 234.213 215.169 234.562C214.826 235.058 215.015 257.05 215.019 259.563C233.767 261.107 250.313 266.485 266.763 275.184C271.26 277.562 278.696 280.233 277.721 286.69C277.162 290.392 271.897 293.246 268.125 291.261L252.783 283.087C246.97 280.287 221.635 271.393 214.995 272.945L214.951 363.715C215.595 367.139 220.454 359.799 221.451 358.752C230.818 348.911 242.715 341.472 256.076 338.438C260.498 337.183 271.878 334.243 273.113 340.625L273.192 340.996C273.537 342.747 273.409 344.74 273.387 346.527C273.094 370.098 257.525 390.315 237.085 400.677C235.667 401.396 233.586 402.702 232.031 403.008L231.673 402.991C226.311 405.95 220.856 406.234 215.197 407.751C214.811 409.504 215.069 411.824 215.066 413.647L215.013 475.065C219.636 474.416 224.214 474.058 228.829 473.192C259.397 467.452 288.321 445.266 301.719 417.287C306.112 408.112 308.774 398.67 311.179 388.842C313.495 360.473 311.023 341.028 294.7 316.286L288.827 308.127C284.723 302.283 286.09 296.089 293.75 296.832C296.866 297.135 298.919 299.801 300.697 302.119C310.798 315.289 318.745 329.81 322.226 346.171C324.18 355.35 327.527 384.97 322.869 392.905C314.431 443.047 271.265 481.551 221.106 487.644C220.396 487.73 215.503 488.316 215.302 488.563C213.4 490.89 216.681 533.8 215.078 543.74C214.089 549.876 203.415 549.767 202.462 542.961C201.694 537.478 202.266 531.153 202.265 525.612L202.368 489.12C200.685 488.477 198.314 488.475 196.517 488.197L185.784 486.146C176.634 484.043 167.7 481.386 159.185 477.379C122.282 460.014 96.4757 420.27 94.9781 379.734C93.3554 367.66 96.2979 351.73 99.9342 340.407C100.609 337.555 101.904 334.652 102.996 331.929C120.052 289.379 156.484 263.584 202.057 259.803C202.629 258.157 202.243 255.31 202.243 253.471L202.233 237.753C184.565 237.899 166.249 230.049 157.192 214.095L157.062 213.863ZM107.498 375.741C109.797 431.471 147.652 469.486 202.175 475.583L202.242 437.385C200.926 436.265 199.375 436.063 197.814 435.402C186.92 430.795 176.737 423.604 169.291 414.403C166.786 411.307 162.541 405.66 166.257 401.897C171.42 396.669 179.166 406.462 182.755 409.749L188.647 414.677C190.307 415.945 200.42 422.906 202.548 421.905C206.414 414.662 197.856 409.497 193.344 404.546L187.571 397.677C179.353 387.337 167.867 387.748 159.812 377.838C150.703 369.78 144.695 353.931 144.729 341.669C144.754 332.736 153.474 334.955 159.625 335.781C171.41 337.365 182.553 341.888 192.369 348.541L202.168 355.389L202.247 281.94C202.243 278.817 202.428 275.55 202.121 272.446C197.318 273.012 192.523 273.466 187.789 274.521C140.943 284.964 107.034 327.596 107.498 375.741ZM281.028 88.5938L261.494 96.4062C252.781 100.386 244.196 105.47 237.355 112.249C230.503 119.038 217.233 139.571 217.424 150C218.137 150.395 218.142 150.28 218.906 150.185C246.975 144.717 274.175 124.856 280.954 95.9375C281.378 94.1283 283.698 87.9437 281.028 88.5938ZM258.178 351.719C241.728 355 227.005 370.47 217.802 384.062C216.828 385.502 212.705 394.54 216.692 394.219C237.074 389.886 253.573 376.506 258.949 356.239C259.361 354.685 260.918 351.038 258.178 351.719ZM157.767 347.875C159.332 355.784 164.922 366.971 171.937 371.673C179.097 376.472 187.514 378.982 193.926 385.015C196.137 387.096 201.156 395.539 202.16 393.281C203.777 388.896 203.352 383.511 202.55 378.973C200.16 365.459 169.605 350.031 157.767 347.875ZM167.644 187.581C162.441 188.313 163.126 190.323 163.939 195.056C166.052 207.361 177.491 219.624 189.764 222.691L193.468 223.475C180.678 208.482 180.339 203.517 171.565 187.482C170.388 187.498 168.761 187.307 167.644 187.581ZM177.58 115.781C173.205 117.643 173.878 123.679 175.435 127.389C178.381 134.408 188.075 143.516 194.926 147.562L196.724 148.036C195.263 141.465 187.321 113.538 177.58 115.781ZM234.39 198.175C226.974 201.557 216.131 208.809 213.131 216.875L211.997 220.433L217.564 219.423C223.785 217.566 230.789 215.07 236.133 211.335C243.07 206.487 242.773 196.952 234.39 198.175Z"/>
</svg>
